<?xml version="1.0" encoding="UTF-8" standalone="no"?>
<svg
   viewBox="0 0 64 64"
   width="64px"
   height="64px"
   version="1.1"
   id="svg5"
   sodipodi:docname="bookmark.svg"
   inkscape:version="1.3.2 (091e20e, 2023-11-25, custom)"
   xmlns:inkscape="http://www.inkscape.org/namespaces/inkscape"
   xmlns:sodipodi="http://sodipodi.sourceforge.net/DTD/sodipodi-0.dtd"
   xmlns="http://www.w3.org/2000/svg"
   xmlns:svg="http://www.w3.org/2000/svg">
  <defs
     id="defs5" />
  <sodipodi:namedview
     id="namedview5"
     pagecolor="#ffffff"
     bordercolor="#000000"
     borderopacity="0.25"
     inkscape:showpageshadow="2"
     inkscape:pageopacity="0.0"
     inkscape:pagecheckerboard="0"
     inkscape:deskcolor="#d1d1d1"
     inkscape:zoom="12.828125"
     inkscape:cx="32"
     inkscape:cy="31.610231"
     inkscape:window-width="1920"
     inkscape:window-height="1017"
     inkscape:window-x="-8"
     inkscape:window-y="-8"
     inkscape:window-maximized="1"
     inkscape:current-layer="svg5" />
  <path
     fill="#ed7899"
     d="M 52.005754,62.55192 32.673448,50.795697 a 1.5079802,1.2506622 0 0 0 -1.779418,0 L 11.561728,62.55192 A 1.5079802,1.2506622 0 0 1 9.1640384,61.513871 V 2.7327494 A 1.5079802,1.2506622 0 0 1 10.672019,1.4820873 h 42.223443 a 1.5079802,1.2506622 0 0 1 1.50798,1.2506621 V 61.513871 a 1.5079802,1.2506622 0 0 1 -2.397688,1.038049 z"
     id="path1"
     style="stroke-width:1.37331" />
  <path
     fill="#e0678f"
     d="M 52.005754,53.797285 34.452865,43.129137 a 4.5239403,3.7519865 0 0 0 -5.353329,0 L 11.561728,53.797285 a 1.5079802,1.2506622 0 0 1 -2.3976896,-1.03805 v 8.754636 a 1.5079802,1.2506622 0 0 0 2.3976896,1.013035 L 30.89403,50.770683 a 1.5079802,1.2506622 0 0 1 1.779418,0 l 19.332306,11.756223 a 1.5079802,1.2506622 0 0 0 2.397688,-1.013035 v -8.754636 a 1.5079802,1.2506622 0 0 1 -2.397688,1.03805 z"
     id="path2"
     style="stroke-width:1.37331" />
  <path
     fill="#f283a5"
     d="M 52.895462,1.4820873 H 10.672019 A 1.5079802,1.2506622 0 0 0 9.1640384,2.7327494 V 8.9860597 A 1.5079802,1.2506622 0 0 1 10.672019,7.735398 h 42.223443 a 1.5079802,1.2506622 0 0 1 1.50798,1.2506617 V 2.7327494 a 1.5079802,1.2506622 0 0 0 -1.50798,-1.2506621 z"
     id="path3"
     style="stroke-width:1.37331" />
  <path
     fill="#8d6c9f"
     d="M 51.387481,0.2314251 H 12.18 A 4.5239403,3.7519865 0 0 0 7.6560592,3.9834116 V 61.513871 a 3.0159601,2.5013243 0 0 0 4.7953758,2.013566 l 18.427517,-11.25596 a 1.5079802,1.2506622 0 0 1 1.779417,0 l 18.442596,11.25596 a 3.0159601,2.5013243 0 0 0 4.810457,-2.013566 V 3.9834116 A 4.5239403,3.7519865 0 0 0 51.387481,0.2314251 Z M 52.895462,61.513871 34.452865,50.257912 a 4.5239403,3.7519865 0 0 0 -5.353329,0 L 10.672019,61.513871 V 3.9834116 A 1.5079802,1.2506622 0 0 1 12.18,2.7327494 h 39.207481 a 1.5079802,1.2506622 0 0 1 1.507981,1.2506622 z"
     id="path4"
     style="stroke-width:1.37331" />
  <path
     fill="#8d6c9f"
     d="m 39.323641,5.2340737 a 1.5079802,1.2506622 0 0 0 -1.50798,1.2506621 v 2.5013239 a 1.5079802,1.2506622 0 0 0 3.015959,0 V 6.4847358 A 1.5079802,1.2506622 0 0 0 39.323641,5.2340737 Z m 7.539901,0 a 1.5079802,1.2506622 0 0 0 -1.50798,1.2506621 v 2.5013239 a 1.5079806,1.2506625 0 0 0 3.01596,0 V 6.4847358 a 1.5079802,1.2506622 0 0 0 -1.50798,-1.2506621 z m -30.159601,0 a 1.5079802,1.2506622 0 0 0 -1.50798,1.2506621 v 2.5013239 a 1.5079802,1.2506622 0 0 0 3.015958,0 V 6.4847358 A 1.5079802,1.2506622 0 0 0 16.703941,5.2340737 Z m 7.539898,0 a 1.5079802,1.2506622 0 0 0 -1.50798,1.2506621 v 2.5013239 a 1.507981,1.2506629 0 0 0 3.015962,0 V 6.4847358 A 1.5079802,1.2506622 0 0 0 24.243839,5.2340737 Z m 7.539901,0 a 1.5079802,1.2506622 0 0 0 -1.507979,1.2506621 v 2.5013239 a 1.5079802,1.2506622 0 0 0 3.015959,0 V 6.4847358 A 1.5079802,1.2506622 0 0 0 31.78374,5.2340737 Z"
     id="path5"
     style="stroke-width:1.37331" />
</svg>
