<svg xmlns="http://www.w3.org/2000/svg"  viewBox="0 0 128 128" width="64px" height="64px"><polygon fill="#fff" points="124.1,50.1 106.1,18.9 82,32.8 82,5 46,5 46,32.8 21.9,18.9 3.9,50.1 28,64 3.9,77.9 21.9,109.1 46,95.2 46,123 82,123 82,95.2 106.1,109.1 124.1,77.9 100,64"/><path fill="#444b54" d="M82,126H46c-1.7,0-3-1.3-3-3v-22.6l-19.6,11.3c-0.7,0.4-1.5,0.5-2.3,0.3c-0.8-0.2-1.4-0.7-1.8-1.4l-18-31.2 c-0.4-0.7-0.5-1.5-0.3-2.3c0.2-0.8,0.7-1.4,1.4-1.8L22,64L2.4,52.7c-0.7-0.4-1.2-1.1-1.4-1.8c-0.2-0.8-0.1-1.6,0.3-2.3l18-31.2 c0.4-0.7,1.1-1.2,1.8-1.4c0.8-0.2,1.6-0.1,2.3,0.3L43,27.6V5c0-1.7,1.3-3,3-3h36c1.7,0,3,1.3,3,3v22.6l19.6-11.3 c0.7-0.4,1.5-0.5,2.3-0.3c0.8,0.2,1.4,0.7,1.8,1.4l18,31.2c0.4,0.7,0.5,1.5,0.3,2.3c-0.2,0.8-0.7,1.4-1.4,1.8L106,64l19.6,11.3 c0.7,0.4,1.2,1.1,1.4,1.8c0.2,0.8,0.1,1.6-0.3,2.3l-18,31.2c-0.4,0.7-1.1,1.2-1.8,1.4c-0.8,0.2-1.6,0.1-2.3-0.3L85,100.4V123 C85,124.7,83.7,126,82,126z M49,120h30V95.2c0-1.1,0.6-2.1,1.5-2.6c0.9-0.5,2.1-0.5,3,0L105,105l15-26L98.5,66.6 C97.6,66.1,97,65.1,97,64s0.6-2.1,1.5-2.6L120,49l-15-26L83.5,35.4c-0.9,0.5-2.1,0.5-3,0c-0.9-0.5-1.5-1.5-1.5-2.6V8H49v24.8 c0,1.1-0.6,2.1-1.5,2.6c-0.9,0.5-2.1,0.5-3,0L23,23L8,49l21.5,12.4c0.9,0.5,1.5,1.5,1.5,2.6s-0.6,2.1-1.5,2.6L8,79l15,26 l21.5-12.4c0.9-0.5,2.1-0.5,3,0c0.9,0.5,1.5,1.5,1.5,2.6V120z"/><path fill="#71c2ff" d="M71.5,85.7l-15.9-9.2c-0.5-0.3-0.5-0.7-0.5-1s0.2-0.7,0.7-0.8l13.7-3.9c3-0.9,5.1-3.6,5.1-6.7s-2-5.9-5.1-6.7 l-13.7-3.9c-0.6-0.2-0.7-0.6-0.7-0.8s0-0.7,0.5-1l15.9-9.2c1.4-0.8,1.9-2.7,1.1-4.1c-0.8-1.4-2.7-1.9-4.1-1.1L67,38v-8 c0-1.7-1.3-3-3-3s-3,1.3-3,3v11.5l-8.4,4.8c-2.5,1.4-3.8,4.1-3.4,6.9c0.3,2.8,2.3,5.1,5,5.9L67.9,63c0.6,0.2,0.7,0.6,0.7,1 s-0.1,0.8-0.7,1l-13.7,3.9c-2.7,0.8-4.7,3-5,5.9c-0.3,2.8,1,5.5,3.4,6.9l8.4,4.8V98c0,1.7,1.3,3,3,3s3-1.3,3-3v-8l1.5,0.9 c0.5,0.3,1,0.4,1.5,0.4c1,0,2-0.5,2.6-1.5C73.4,88.3,72.9,86.5,71.5,85.7z"/></svg>